<?xml version="1.0" encoding="utf-8"?>
<!-- Generator: Adobe Illustrator 17.0.0, SVG Export Plug-In . SVG Version: 6.00 Build 0)  -->
<!DOCTYPE svg PUBLIC "-//W3C//DTD SVG 1.1//EN" "http://www.w3.org/Graphics/SVG/1.1/DTD/svg11.dtd">
<svg version="1.1" id="Слой_1" xmlns="http://www.w3.org/2000/svg" xmlns:xlink="http://www.w3.org/1999/xlink" x="0px" y="0px"
	 width="60px" height="60px" viewBox="0 0 60 60" enable-background="new 0 0 60 60" xml:space="preserve">
<g>
	<circle fill="#7C7C7C" cx="30" cy="30" r="5.742"/>
	<path fill="#7C7C7C" d="M43.429,19.84c-0.276-0.748-0.717-1.425-1.289-1.981c-0.555-0.572-1.232-1.013-1.981-1.289
		c-0.607-0.236-1.519-0.516-3.198-0.593c-1.816-0.083-2.361-0.1-6.961-0.1s-5.144,0.018-6.961,0.101
		c-1.68,0.077-2.591,0.357-3.198,0.593c-0.748,0.276-1.425,0.716-1.981,1.289c-0.572,0.556-1.013,1.233-1.289,1.981
		c-0.236,0.607-0.517,1.519-0.593,3.199c-0.083,1.816-0.1,2.361-0.1,6.961c0,4.6,0.017,5.144,0.1,6.961
		c0.077,1.68,0.358,2.591,0.593,3.198c0.58,1.502,1.767,2.69,3.269,3.269c0.607,0.236,1.519,0.517,3.199,0.593
		c1.816,0.083,2.361,0.1,6.961,0.1s5.144-0.017,6.961-0.1c1.68-0.076,2.592-0.357,3.199-0.593c0.748-0.276,1.425-0.716,1.981-1.289
		c0.572-0.556,1.012-1.232,1.289-1.981c0.236-0.607,0.516-1.519,0.593-3.198c0.083-1.817,0.101-2.362,0.101-6.961
		c0-4.6-0.018-5.145-0.101-6.961C43.946,21.36,43.665,20.447,43.429,19.84z M18.737,20.804c0-1.142,0.926-2.067,2.067-2.067
		c1.142,0,2.067,0.926,2.067,2.067c0,1.142-0.926,2.067-2.067,2.067C19.663,22.872,18.738,21.946,18.737,20.804z M30,38.846
		c-4.885,0-8.846-3.96-8.846-8.846s3.961-8.846,8.846-8.846c4.886,0,8.846,3.96,8.846,8.846S34.886,38.846,30,38.846z"/>
	<path fill="#7C7C7C" d="M30,0C13.434,0,0,13.434,0,30s13.434,30,30,30s30-13.434,30-30S46.566,0,30,0z M47.122,37.103
		c-0.083,1.833-0.375,3.086-0.801,4.181c-0.433,1.149-1.111,2.191-1.987,3.051c-0.861,0.877-1.902,1.555-3.052,1.987
		c-1.095,0.426-2.348,0.717-4.181,0.801c-1.837,0.084-2.424,0.104-7.103,0.104c-4.678,0-5.265-0.02-7.102-0.104
		c-1.833-0.084-3.086-0.375-4.181-0.801c-2.314-0.895-4.143-2.724-5.038-5.038c-0.426-1.096-0.717-2.348-0.801-4.182
		c-0.084-1.837-0.104-2.424-0.104-7.102s0.02-5.265,0.104-7.102c0.084-1.834,0.375-3.086,0.801-4.182
		c0.432-1.149,1.111-2.19,1.987-3.051c0.861-0.877,1.902-1.555,3.051-1.988c1.096-0.425,2.348-0.716,4.182-0.8
		c1.837-0.084,2.424-0.104,7.102-0.104c4.678,0,5.265,0.02,7.102,0.104c1.834,0.084,3.086,0.375,4.182,0.801
		c1.149,0.433,2.191,1.111,3.051,1.987c0.877,0.86,1.555,1.902,1.988,3.051c0.426,1.096,0.717,2.348,0.8,4.182
		c0.084,1.837,0.104,2.424,0.104,7.102S47.207,35.265,47.122,37.103z"/>
</g>
</svg>
