<?xml version="1.0" encoding="utf-8"?>
<!-- Generator: Adobe Illustrator 17.0.0, SVG Export Plug-In . SVG Version: 6.00 Build 0)  -->
<!DOCTYPE svg PUBLIC "-//W3C//DTD SVG 1.1//EN" "http://www.w3.org/Graphics/SVG/1.1/DTD/svg11.dtd">
<svg version="1.1" id="Слой_1" xmlns="http://www.w3.org/2000/svg" xmlns:xlink="http://www.w3.org/1999/xlink" x="0px" y="0px"
	 width="24px" height="24px" viewBox="0 0 24 24" enable-background="new 0 0 24 24" xml:space="preserve">
<path fill="#333333" d="M24,22.675l-4.847-4.762c1.722-1.903,2.778-4.4,2.778-7.141C21.931,4.833,17.012,0,10.965,0
	S0,4.833,0,10.772c0,5.94,4.919,10.772,10.965,10.772c2.571,0,4.933-0.88,6.805-2.341L22.652,24L24,22.675z M2,10.772
	C2,5.936,6.022,2,10.965,2c4.944,0,8.965,3.936,8.965,8.772s-4.021,8.772-8.965,8.772C6.022,19.545,2,15.609,2,10.772z"/>
</svg>
